<?xml version="1.0" encoding="utf-8"?>
<!-- Generator: Adobe Illustrator 15.0.2, SVG Export Plug-In . SVG Version: 6.00 Build 0)  -->
<!DOCTYPE svg PUBLIC "-//W3C//DTD SVG 1.1//EN" "http://www.w3.org/Graphics/SVG/1.1/DTD/svg11.dtd">
<svg version="1.1" id="Layer_1" xmlns="http://www.w3.org/2000/svg" xmlns:xlink="http://www.w3.org/1999/xlink" x="0px" y="0px"
	 width="21px" height="21px" viewBox="0 0 21 21" enable-background="new 0 0 21 21" xml:space="preserve">
<path fill="#FFFFFF" d="M10.5,0.01c-5.794,0-10.491,4.698-10.491,10.491S4.707,20.99,10.5,20.99c5.792,0,10.49-4.696,10.49-10.489
	S16.293,0.01,10.5,0.01z M13.277,10.456h-1.816c0,2.903,0,6.479,0,6.479H8.768c0,0,0-3.538,0-6.479h-1.28V8.169h1.28V6.688
	c0-1.061,0.503-2.717,2.716-2.717l1.994,0.008V6.2c0,0-1.213,0-1.447,0c-0.236,0-0.57,0.118-0.57,0.622v1.347h2.053L13.277,10.456z"
	/>
</svg>
