<?xml version="1.0" encoding="utf-8"?>
<!-- Generator: Adobe Illustrator 15.0.2, SVG Export Plug-In . SVG Version: 6.00 Build 0)  -->
<!DOCTYPE svg PUBLIC "-//W3C//DTD SVG 1.1//EN" "http://www.w3.org/Graphics/SVG/1.1/DTD/svg11.dtd">
<svg version="1.1" id="Layer_1" xmlns="http://www.w3.org/2000/svg" xmlns:xlink="http://www.w3.org/1999/xlink" x="0px" y="0px"
	 width="21px" height="21px" viewBox="0 0 21 21" enable-background="new 0 0 21 21" xml:space="preserve">
<path fill="#FFFFFF" d="M10.501,0.01c-5.794,0-10.49,4.698-10.49,10.491S4.707,20.99,10.501,20.99s10.49-4.696,10.49-10.489
	S16.295,0.01,10.501,0.01z M13.32,16.611c-0.433,0-2.825-0.057-3.437-0.057s-3.797-0.993-3.797-4.498c0-0.624,0-1.251-0.002-1.876
	C6.082,9.598,6.07,9.017,6.068,8.438C6.067,8.27,6.067,8.101,6.066,7.932C6.062,7.049,5.987,6.055,6.271,5.207
	c0.217-0.646,0.73-0.905,1.363-0.905c1.531,0,1.634,1.561,1.638,3.129h4.425c0.701,0,1.224,0.71,1.224,1.798
	c0,1.087-1.134,1.33-1.727,1.33H9.224c-0.021,0.666-0.041,1.208-0.041,1.537c0,0.692,0.27,1.442,1.96,1.442h2.377
	c0.593,0,1.474,0.449,1.474,1.704C14.993,16.496,13.752,16.611,13.32,16.611z"/>
</svg>
